<svg version="1.2" xmlns="http://www.w3.org/2000/svg" viewBox="0 0 1295 1583" width="1295" height="1583">
	<title>We Care Approach to Sustainability &amp; ESG_public-Jan2024-1-1-pdf-svg</title>
	<style>
		.s0 { fill: #ff5640 } 
	</style>
	<g id="Clip-Path: Page 1" clip-path="url(#cp1)">
		<g id="Page 1">
			<path id="Path 28" fill-rule="evenodd" class="s0" d="m609.8 993.2c110.2 110.3 110.2 289.5 0 399.8l-103.3 106.8c-110.2 110.3-289.2 110.3-399.4 0l-24.1-20.7c-110.1-110.3-110.1-289.5 0-403.2l6.9-3.4c48.2-48.3 110.2-86.2 172.2-110.3 141.1-51.7 175.6-110.3 175.6-168.9 0-58.6-31-120.6-175.6-172.3-65.4-24.1-124-58.6-172.2-110.3l-6.9-3.4c-110.1-110.3-110.1-289.5 0-399.8l24.1-24.1c110.2-110.3 289.2-110.3 399.4 0l103.3 106.8c110.2 110.3 110.2 289.5 0 399.8-51.6 55.1-82.6 127.5-82.6 199.9 0 75.8 31 148.2 82.6 203.3zm685.1-199.9c0 165.4-137.7 299.8-299.5 299.8-161.8 0-344.3-203.3-344.3-299.8 0-96.5 182.5-299.8 344.3-299.8 161.8 0 299.5 134.4 299.5 299.8z"/>
		</g>
	</g>
</svg>