<svg version="1.2" xmlns="http://www.w3.org/2000/svg" viewBox="0 0 1589 271" width="1589" height="271">
	<title>We Care Approach to Sustainability &amp; ESG_public-Jan2024-1-1-pdf-svg</title>
	<defs>
		<clipPath clipPathUnits="userSpaceOnUse" id="cp1">
			<path d="m-758.95-2763h6439.48v9113.41h-6439.48z"/>
		</clipPath>
	</defs>
	<style>
		.s0 { fill: #ff5640 } 
		.s1 { fill: #192b37 } 
	</style>
	<g id="Clip-Path: Page 1" clip-path="url(#cp1)">
		<g id="Page 1">
			<path id="Path 28" fill-rule="evenodd" class="s0" d="m1481.1 177.8c17.3 17.3 17.3 45.4 0 62.7l-16.2 16.8c-17.3 17.3-45.5 17.3-62.8 0l-3.7-3.2c-17.3-17.4-17.3-45.5 0-63.4l1-0.5c7.6-7.6 17.3-13.5 27.1-17.3 22.1-8.1 27.5-17.3 27.5-26.5 0-9.2-4.8-19-27.5-27.1-10.3-3.8-19.5-9.2-27.1-17.3l-1-0.6c-17.3-17.3-17.3-45.4 0-62.7l3.7-3.8c17.3-17.3 45.5-17.3 62.8 0l16.2 16.8c17.3 17.3 17.3 45.4 0 62.7-8.1 8.7-13 20.1-13 31.4 0 11.9 4.9 23.3 13 32zm107.6-31.4c0 25.9-21.7 47-47.1 47-25.4 0-54-31.9-54-47 0-15.2 28.6-47.1 54-47.1 25.4 0 47.1 21.1 47.1 47.1z"/>
			<path id="Path 29" fill-rule="evenodd" class="s1" d="m591.1 74.4c-0.5-2.7-1.1-7-1.1-16.8v-57.4h46v239.8h-42.7v-9.2c0-8.1 0.5-14.1 1.1-17.9h-1.7c-11.8 21.1-36.2 33-64.3 33-54.1 0-91.9-41.1-91.9-99.5 0-58.5 38.9-99.1 93.5-99.1 26 0 49.8 10.3 59.5 27.1zm1.1 71.7c0-32.2-24.2-58.2-54.1-58.2-29.9 0-54.1 26-54.1 58.2 0 32.2 24.2 58.2 54.1 58.2 29.9 0 54.1-26 54.1-58.2zm238.4-84.7v-8.1h42.7v186.7h-42.7v-10.3c0-8.1 0.6-13.5 1.1-17.9h-1.6c-10.3 20.6-34.1 34.1-63.8 34.1-54.6 0-91.9-41.1-91.9-99 0-58.4 39.4-99.6 93.5-99.6 30.3 0 53 13.6 62.2 31.4h1.6c-0.5-3.2-1.1-7.6-1.1-17.3zm-1.1 85c0-32.1-24.1-57.9-54-57.9-29.9 0-54.1 25.8-54.1 57.9 0 32 24.2 57.9 54.1 57.9 29.9 0 54-25.9 54-57.9zm440.2-85v-8.1h42.7v186.7h-42.7v-10.3c0-8.1 0.5-13.5 0.5-17.9h-1.1c-10.3 20.6-34.1 34.1-64.3 34.1-54.1 0-91.4-41.1-91.4-99 0-58.4 39.5-99.6 93.5-99.6 29.8 0 52.5 13.6 62.2 31.4h1.1c0-3.2-0.5-7.6-0.5-17.3zm-1.7 85c0-32.1-24-57.9-53.8-57.9-29.7 0-53.8 25.8-53.8 57.9 0 32 24.1 57.9 53.8 57.9 29.8 0 53.8-25.9 53.8-57.9zm-868.3-18.4v112h-47v-109.3c0-24.4-16.8-40.1-39-40.1-22.7 0-40 15.7-40 40.1v109.3h-46.5v-112.6c0-46.5 35.7-80.1 86.5-80.1 50.3 0 86.5 33.6 86 80.7zm-300.1-80.7c54.6 0 91.4 41.7 91.4 99.6 0 4.9 0 10.8-1.1 15.2h-141.1c5.4 26.5 23.3 42.2 53 42.2 21.6 0 40.5-5.4 54.6-20.1l22.2 32.5c-16.8 18.4-44.9 29.2-78.4 29.2-58.4 0-99.5-41.6-99.5-99.5 0-57.4 41.6-99.1 98.9-99.1zm-0.5 41.2c-27 0-44.9 16.2-49.8 42.7h96.3c-3.3-25.4-20-42.7-46.5-42.7zm1006.7-35.2l-77.8 186.7h-51.4l-77.9-186.7h50.9c0 0 45.4 123.4 47 129.9 1.1 2.7 3.3 4.3 6 4.3 2.1 0 4.8-1.6 5.4-4.3 2.1-6.5 47-129.9 47-129.9z"/>
		</g>
	</g>
</svg>